<svg width="320" height="568" viewBox="0 0 320 568" fill="none" xmlns="http://www.w3.org/2000/svg">
<g clip-path="url(#clip0_78_23)">
<rect width="320" height="568" fill="#F0EBD8"/>
<path d="M194 169C193.5 168.5 192.802 169.301 192.268 165.461C191.863 162.552 190.926 159.65 190.926 156.709C190.926 150.432 205.157 156.453 203.334 149.163C203.118 148.298 200.03 141.316 202.731 141.316C203.61 141.316 208.03 142.002 208.331 141.45C208.938 140.337 208.431 137.468 208.431 136.319C208.431 132.844 208.478 129.365 208.431 125.89C208.344 119.316 205.59 121.063 200.853 122.872C199.547 123.37 196.11 125.244 196.828 124.046C197.182 123.457 197.933 123.451 197.767 122.57C197.583 121.585 196.743 120.839 196.057 120.189C195.448 119.613 194.813 117.382 194.548 118.177C194.315 118.877 194.467 116.697 194.548 115.964C194.689 114.699 197.478 113.892 198.438 113.281C200.305 112.093 201.919 111.983 203.871 110.129C206.068 108.041 207.445 105.657 209.236 103.288C209.502 102.936 209.825 107.235 209.974 107.915C210.558 110.585 213.8 108.895 215.507 108.452C220.941 107.043 225.011 112.162 229.961 112.074C233.838 112.004 237.291 106.53 239.686 104.025C242.997 100.564 245.843 104.269 249.009 107.077C253.454 111.019 254.427 109.329 257.929 104.864C258.855 103.683 263.583 97.6969 265.575 99.7328C267.203 101.397 267.694 103.789 269.13 105.501C271.067 107.81 277.55 103.391 279.123 102.55C281.748 101.146 294.322 94.8542 287.842 90.1419C286.662 89.2837 288.721 90.0601 289.284 90.3766C290.933 91.304 290.545 93.9847 291.933 95.3733C292.405 95.8448 292.46 93.1964 292.939 92.6905C294.733 90.7968 296.308 92.8449 297.869 93.4954C301.887 95.1695 304.795 87.4929 308.567 88.331C310.371 88.7319 310.138 92.4222 312.255 92.4222C314.736 92.4222 316.33 88.549 318.895 89.4041" stroke="#E7DEC6" stroke-width="2" stroke-linecap="round"/>
<path d="M271.845 105.404C273.932 108.012 272.598 114.449 272.598 117.784C272.598 119.869 273.011 119.707 275.066 119.707C279.709 119.707 284.037 120.711 288.491 121.966C296.228 124.145 291.612 130.468 291.419 135.684C291.272 139.662 296.752 141.54 300.244 141.54C304.715 141.54 306.548 140.926 308.734 144.969C309.997 147.306 313.32 153.153 315.928 153.627C318.851 154.158 322.038 155.846 324.544 157.349" stroke="#E7DEC6" stroke-width="2" stroke-linecap="round"/>
<path d="M68.3899 84.5751C68.0212 81.0723 60.4767 76.5995 65.1035 74.917C66.9918 74.2304 68.5036 73.3801 70.5026 73.0726C72.8912 72.7051 75.273 64.2589 76.8407 67.1705C77.9114 69.1589 78.9792 71.8529 80.7978 73.3409C82.5306 74.7586 86.156 71.603 84.8891 70.1551C83.1941 68.2179 82.3646 66.5313 81.4015 63.817C80.5254 61.3482 80.0906 61.1731 81.9716 60.1281C84.292 58.839 82.8368 57.3694 81.8039 55.1314C80.2425 51.7485 78.6433 50.7719 82.7429 50.7719C86.8802 50.7719 90.6537 51.1844 94.7483 51.7109C97.8918 52.115 100.231 40.8708 97.0958 39.303C95.8015 38.6558 94.5316 38.6993 93.1387 38.6993C90.4739 38.6993 91.3278 33.3793 91.3278 31.59C91.3278 30.792 91.0462 33.6605 91.6631 33.8368C92.4798 34.0701 93.9198 33.9729 94.6477 33.5685C95.4338 33.1318 97.9038 32.1281 98.6384 32.4954C99.61 32.9812 100.763 34.9878 101.992 34.541C103.481 33.9993 104.389 32.278 104.876 30.8857C105.834 28.1472 104.103 28.4939 101.958 27.834C100.265 27.3129 101.293 24.7464 102.495 24.2123C103.748 23.6554 103.625 22.0338 105.245 21.8313C107.749 21.5183 111.337 21.3075 113.696 22.1331C115.74 22.8487 118.801 23.7776 119.698 25.9561C119.777 26.1469 122.01 30.8915 122.113 29.0413C122.274 26.1474 126.686 24.3709 129.356 24.8159C132.744 25.3806 132.35 35.9714 135.258 29.1084C136.903 25.2285 133.633 24.0952 132.509 21.06C132.063 19.8558 132.604 18.8143 131.436 17.8406C128.837 15.6756 124.803 15.0295 121.643 14.0847C116.675 12.5993 121.956 10.6987 123.924 8.38381C125.864 6.10088 126.942 4.24068 126.942 1.27441" stroke="#E7DEC6" stroke-width="2" stroke-linecap="round"/>
<path d="M72.0117 440.716C69.5538 440.807 60.1701 442.146 59.3355 444.337C58.6136 446.232 59.3355 449.753 59.3355 451.816C59.3355 455.176 56.5615 459.714 53.9029 461.708C51.9568 463.168 56.761 462.807 57.1558 463.553C58.618 466.315 57.5246 471.356 57.5246 474.519C57.5246 476.489 57.8357 475.915 59.4026 476.698C63.6423 478.818 60.6684 484.152 61.8842 487.664C62.7318 490.113 79.8783 482.496 82.2063 481.963C86.1197 481.069 84.2721 496.025 88.3097 496.249C92.2856 496.47 93.8172 502.462 95.1843 505.438C96.3486 507.972 97.686 510.233 97.2299 513.084C97.1435 513.624 96.2455 516.268 97.3305 515.7C99.4029 514.614 101.719 513.7 103.702 512.48C107.085 510.399 107.051 505.432 111.248 503.895C114.174 502.824 117.691 504.448 120.503 503.426C121.532 503.052 123.033 493.885 123.32 492.762C123.869 490.617 124.631 488.356 125.735 486.424C127.209 483.844 133.618 483.132 136.063 482.366C139.182 481.39 147.728 480.173 146.761 474.854C146.453 473.158 141.7 469.69 139.953 469.69C137.444 469.69 135.676 469.605 133.313 468.818C129.371 467.504 127.637 466.755 124.997 462.916C121.908 458.423 120.906 455.462 120.906 450.307C120.906 446.068 119.607 440.841 120.704 436.758C121.359 434.324 122.543 431.843 122.918 429.347C123.262 427.051 114.594 430.334 113.662 430.655C111.322 431.461 108.662 432.41 106.787 430.119C105.322 428.328 105.915 426.248 102.797 428.308C101.142 429.401 99.5234 430.851 98.3701 432.466C97.0494 434.315 93.7947 433.41 91.8308 433.17C90.747 433.038 89.7264 432.93 88.645 432.868C87.1017 432.78 85.9372 431.326 84.4867 431.326C83.4111 431.326 83.5032 436.477 83.4471 437.094C83.0886 441.037 79.2577 438.979 76.5054 438.905C75.3653 438.874 74.0077 438.734 72.8836 438.938C71.0788 439.266 71.3102 440.764 70.2008 441.319" stroke="#E7DEC6" stroke-width="2" stroke-linecap="round"/>
<path d="M86.0293 375.5C86.7499 376.183 87.2614 384.186 86.6665 384.913C86.0146 385.71 83.7605 386.403 84.2184 387.73C84.789 389.385 86.1614 391.031 87.136 392.492C88.4663 394.488 90.2815 396.674 89.2487 399.199C87.7538 402.853 82.6258 403.656 84.2855 407.986C84.6572 408.955 84.6544 411.594 86.0293 411.741C86.9751 411.843 89.1096 411.242 89.7852 412.11C92.0824 415.064 87.9998 417.314 87.7396 419.656C87.4985 421.826 87.4438 423.742 86.5323 425.793C85.8551 427.316 85.6035 427.953 87.4378 428.509C89.763 429.213 89.5169 430.778 89.5169 432.868" stroke="#E7DEC6" stroke-width="2" stroke-linecap="round"/>
<path d="M96.7604 514.962C95.2593 515.787 88.1568 521.049 90.3888 523.413C91.5366 524.628 94.4134 526.814 92.2332 528.51C91.1308 529.367 88.6289 528.845 87.3706 528.845C84.5288 528.845 82.1309 529.516 79.3893 530.187C76.9395 530.785 74.5137 535.124 75.0633 537.598C75.5223 539.663 76.3918 542.652 75.1975 544.674C73.5174 547.517 70.5267 549.222 68.7923 551.984C68.035 553.19 69.5748 553.214 70.0666 554.198C70.6791 555.423 69.9441 557.513 69.5971 558.658C68.7804 561.353 69.778 559.811 70.1672 561.173C70.5032 562.349 68.9092 562.223 68.524 562.917C67.8766 564.082 67.6732 566.169 67.1826 567.477" stroke="#E7DEC6" stroke-width="2" stroke-linecap="round"/>
<path d="M198.5 431.5C202.889 431.988 209.639 447.641 209.639 453.425C209.639 455.206 208.58 461.537 210.008 462.647C210.831 463.288 214.852 461.847 215.407 461.708C218.819 460.855 223.052 458.345 226.54 458.221C227.341 458.192 227.389 462.228 228.351 462.916C230.961 464.78 233.864 467.782 234.455 471.031C234.904 473.502 236.618 475.786 236.802 478.275C236.979 480.663 239.624 479.374 241.061 478.711C244.826 476.973 243.245 482.456 243.476 484.881C243.625 486.455 245.545 485.725 246.46 486.591C247.811 487.871 248.88 489.776 249.948 491.286C252.134 494.376 253.144 488.751 254.039 487.53C255.876 485.025 256.214 486.371 257.862 488.637C259.591 491.014 259.437 490.612 262.222 490.951C270.521 491.96 264.396 498.156 262.155 502.286C260.31 505.683 253.44 507.248 256.789 511.34C260.554 515.942 259.672 521.838 254.643 525.223C251.857 527.098 249.909 531.91 253.838 533.507C257.952 535.178 261.239 536.741 258.667 540.985C258.396 541.431 256.926 542.828 257.862 543.332C260.137 544.557 263.344 545.256 265.877 545.646C269.386 546.186 279.669 546.723 279.995 541.186C280.203 537.658 279.66 548.249 279.66 551.783C279.66 554.017 281.988 555.636 283.55 556.914C285.4 558.428 283.309 558.63 283.08 560.234C282.318 565.567 300.507 560.654 295.958 567.477" stroke="#E7DEC6" stroke-width="2" stroke-linecap="round"/>
<path d="M99 170C100.25 167.625 102.957 164.303 104.138 161.94C104.704 160.808 101.69 161.273 100.516 160.8C98.0517 159.805 94.6804 158.699 92.6692 156.876C89.6068 154.101 105.437 150.156 107.089 149.566C109.626 148.66 105.712 143.127 103.669 143.127C100.469 143.127 100.134 149.322 97.4982 149.029C96.287 148.895 94.7636 145.113 94.2118 144.2C92.3828 141.175 92.1315 140.599 93.977 137.191C94.8147 135.645 94.7796 134.073 96.794 134.073C99.9264 134.073 98.2557 128.64 96.8946 127.231C96.1883 126.501 94.747 126.452 93.8764 125.957C92.9479 125.429 92.0767 124.078 91.026 123.844C89.6394 123.536 89.9503 128.357 88.7791 127.366C86.786 125.679 87.1869 122.941 87.1024 120.659C87.0504 119.254 84.9713 111.608 88.5779 113.247C89.4632 113.65 92.1995 113.999 90.9924 112.275C89.3134 109.876 85.5452 105.493 82.877 104.025C81.3287 103.174 70.3956 102.297 71.6763 100.135C72.3963 98.9203 74.4262 97.7159 74.4262 96.2787C74.4262 94.1478 73.2189 92.5362 73.2189 90.3766C73.2189 87.0844 71.5691 86.7668 68.1887 85.9165C65.1787 85.1593 62.1454 85.089 59.1343 84.5415C58.5714 84.4392 58.1964 83.0358 57.86 82.63C55.2491 79.4817 55.3131 82.3825 53.601 83.9044C50.9919 86.2236 46.6149 81.8286 44.4125 80.8192C41.9957 79.7115 40.0033 86.7374 38.678 88.0627C38.1924 88.5483 35.5537 88.3438 34.9221 88.1633C32.9715 87.606 29.6453 83.9333 28.0139 82.563C26.4329 81.2349 24.1033 83.0262 22.4807 83.6696C22.2518 83.7604 16.7258 85.8412 16.7462 85.514C16.8608 83.6797 24.2818 82.7941 23.5538 80.8527C22.184 77.2 12.6612 77.2259 9.67034 77.4321C6.65549 77.6401 5.30219 81.5569 2.3262 81.5569C-0.200096 81.5569 -2.72639 81.5569 -5.25269 81.5569" stroke="#E7DEC6" stroke-width="2" stroke-linecap="round"/>
<path d="M59.5 301C59.5 306.238 53 305.762 53 311C53 312.694 51.2388 314.317 49.7858 314.883C49.0847 318.395 45.6221 320.863 43.4416 323.128C40.1993 326.497 35.9183 324.597 31.8459 323.872C30.4844 323.629 31.762 323.813 32.0584 324.074C32.9008 324.817 33.0122 327.313 33.2423 328.366C33.6486 330.226 35.2909 334.077 32.4227 334.077C30.6729 334.077 21.5275 331.977 20.5235 333.806C19.0914 336.415 20.3368 336.512 16.9416 336.577C15.2153 336.61 14.0909 337.833 13.0561 339.314C12.448 340.185 11.4271 340.41 10.8706 341.207C9.67003 342.925 11.0928 345.724 9.47423 347.526C8.27673 348.859 6.46218 347.513 5.10309 348.269C3.71274 349.043 3.07332 350.395 1.39977 351.04C0.199767 351.503 -0.782728 352.458 -2 353" stroke="#E7DEC6" stroke-width="2" stroke-linecap="round"/>
<path d="M206.478 312.647C207.44 312.647 208.06 312.598 208.779 311.879C209.914 310.745 209.751 313.412 210.16 314.147C211.014 315.684 212.453 315.76 213.978 314.743C216.049 313.363 215.977 312.141 217.097 314.726C217.761 316.257 218.512 313.844 219.433 313.874C220.88 313.921 221.836 315.523 223.047 315.408C226.461 315.083 228.141 309.226 230.411 307.089C231.463 306.099 232.133 309.326 232.269 309.834C233.147 313.127 234.057 316.047 234.417 319.465C234.658 321.759 235.323 324.173 237.809 323.846C238.397 323.769 240.587 323.178 241.065 323.607C241.437 323.942 241.393 325.875 241.44 326.386C241.697 329.221 251.106 321.435 252.264 325.227C252.676 326.575 252.754 327.912 254.514 327C257.2 325.607 257.791 323.854 258.708 321.17C259.315 319.391 260.377 317.901 260.787 316.056C261.049 314.877 261.863 316.511 262.066 316.857C262.932 318.337 264.168 319.547 265.032 321.016C265.591 321.967 267.319 321.545 268.305 321.545C269.198 321.545 269.556 323.934 269.686 324.647C270.548 329.388 281.285 322.442 281.652 329.045C281.706 330.018 282.573 330.207 282.573 331.261C282.573 333.695 282.582 334.784 284.925 336.102C286.632 337.063 288.488 337.419 290.107 338.591C292.656 340.437 295.876 343.303 299.244 343.126C300.641 343.052 300.983 339.133 300.983 338.097C300.983 337.636 300.681 334.214 301.222 334.142C304.246 333.739 307.555 334.125 310.597 334.125C311.748 334.125 313.051 333.849 313.938 334.671C314.807 335.475 316.013 335.591 316.938 336.273C317.208 336.472 319.02 335.352 319.7 335.352" stroke="#E7DEC6" stroke-width="2" stroke-linecap="round"/>
<path d="M193 174.5C194 176.5 192.79 180.676 192.193 182.019C191.006 184.689 185.43 181.47 184.014 180.851C177.177 177.859 180.52 186.684 179.652 190.587C178.499 195.776 167.091 189.627 165.632 196.195C165.385 197.305 162.817 202.375 162.049 202.972C158.9 205.421 158.628 198.788 157.92 197.675C154.36 192.08 150.287 205.945 150.287 208.814C150.287 216.473 140.128 202.037 139.616 201.881C136.567 200.954 129.941 202.544 129.334 198.298C128.986 195.862 129.852 193.025 129.178 190.665C128.278 187.516 116.041 192.305 115.314 189.029C114.554 185.611 117.279 180.072 112.432 180.072C109.398 180.072 100.058 181.67 99.8131 177.268C99.6769 174.817 100.274 172.23 98.411 170.257C95.6354 167.319 95.8447 170.799 94.2048 172.438C92.0538 174.589 83.1269 173.062 80.1843 173.062C73.1311 173.062 78.3594 179.764 74.2646 182.876C69.6822 186.358 59.1536 187.701 59.1536 195.183C59.1536 199.189 67.2338 198.559 70.0584 200.479C76.7576 205.035 64.899 206.26 64.7618 209.826C64.6844 211.837 64.4623 214.023 65.4628 215.824C67.4537 219.408 61.4137 218.482 60.0883 220.186C56.7982 224.416 72.3511 224.792 73.8751 225.638C78.7725 228.359 80.9108 230.18 73.8751 233.428C68.9738 235.69 66.1351 241.311 67.6438 246.591C68.2601 248.748 79.1972 250.999 81.5085 251.576C88.8344 253.408 83.4106 258.734 84.4684 263.494C85.8811 269.851 88.22 271.205 79.5612 271.205C76.8905 271.205 64.0542 271.228 63.4376 273.386C62.3871 277.063 68.8512 283.317 65.8523 286.316C64.2147 287.954 47.191 290.756 54.6359 295.819C60.8061 300.015 61.8828 301.727 58.3747 309.839C55.5437 316.386 60.0128 324.955 57.1284 331.493C54.3505 337.79 69.1759 332.087 60.2441 337.101C52.0901 341.679 45.0781 342.655 54.6359 352.212C58.4847 356.061 64.0918 351.986 68.3448 354.238C68.8558 354.508 70.51 363.249 71.772 365.143" stroke="#C0B493" stroke-width="2" stroke-linecap="round"/>
<path d="M71.772 365.143C75.5527 365.143 79.1204 364.211 80.1064 368.648C80.4022 369.979 82.9112 376.743 84.3904 376.047C86.0398 375.271 87.9954 370.061 90.6997 372.464C94.5943 375.926 93.1352 383.238 97.7099 386.796C101.692 389.894 114.234 385.542 118.741 384.849C129.258 383.231 122.112 398.116 127.854 398.792C130.926 399.153 132.043 401.596 135.565 401.596C139.361 401.596 144.467 405.157 145.769 408.918C147.208 413.075 146.364 414.214 151.767 414.214C155.709 414.214 161.45 414.088 165.008 412.111C170.632 408.987 171.883 423.668 178.328 420.446C187.159 416.03 187.431 415.8 192.037 425.587C192.908 427.439 194.126 434.096 197.256 431.662C200.297 429.296 204.209 427.242 207.771 425.742C211.8 424.046 210.177 443.979 218.286 442.177C221.722 441.414 224.951 434.04 227.4 431.662C230.386 428.761 234.223 430.66 237.214 428.001C242.583 423.229 247.028 410.178 247.028 402.686C247.028 396.464 244.639 395.22 238.616 394.586C235.256 394.232 231.966 390.645 231.528 387.575C230.982 383.751 226.783 384.771 223.895 384.771C221.806 384.771 218.038 385.551 216.183 384.46C212.37 382.216 217.34 376.92 215.872 375.268C212.529 371.508 200.754 379.554 202.241 369.894C202.73 366.712 207.097 360.731 206.057 357.821C203.758 351.381 195.958 347.407 191.881 342.164C190.921 340.931 197.161 341.308 198.268 341.308C201.642 341.308 204.967 341.149 204.967 337.102C204.967 335.881 204.001 329.026 204.422 328.689C207.165 326.495 206.369 323.675 206.369 320.277C206.369 306.339 204.117 311.429 192.426 308.282C181.75 305.407 197.801 301.958 197.801 299.168C197.801 291.951 186.699 288.896 197.957 289.432C201.697 289.61 212.911 294.885 216.183 291.613C219.208 288.588 221.75 274.009 215.404 274.009C202.888 274.009 211.002 265.767 211.899 256.795C212.07 255.088 209.71 242.119 209.796 242.074C213.007 240.374 217.567 242.161 221.168 240.36C227.065 237.411 225.662 229.495 218.987 229.144C211.31 228.739 215.419 218.213 216.261 212.319C217.089 206.523 225.919 203.905 222.415 196.896C219.441 190.949 209.173 195.199 209.173 189.886C209.173 186.35 210.106 181.305 208.394 178.124C206.73 175.034 203.398 176.405 200.761 175.087C198.417 173.915 197.567 167.664 194.374 169.167C193.144 169.746 192.5 172.5 193 174" stroke="#C0B493" stroke-width="2" stroke-linecap="round"/>
</g>
<defs>
<clipPath id="clip0_78_23">
<rect width="320" height="568" fill="white"/>
</clipPath>
</defs>
</svg>
