<svg width="320" height="568" viewBox="0 0 320 568" fill="none" xmlns="http://www.w3.org/2000/svg">
<g clip-path="url(#clip0_184_64)">
<rect width="320" height="568" fill="#F0EBD8"/>
<path d="M197.267 173.726C194.993 170.504 197.802 168.026 197.267 164.187C196.862 161.277 195.926 158.375 195.926 155.434C195.926 149.158 210.156 155.178 208.334 147.889C208.117 147.023 205.029 140.042 207.73 140.042C208.61 140.042 213.03 140.727 213.33 140.176C213.937 139.063 213.431 136.194 213.431 135.045C213.431 131.57 213.477 128.091 213.431 124.616C213.343 118.041 210.589 119.789 205.852 121.597C204.547 122.096 201.109 123.969 201.828 122.771C202.181 122.183 202.932 122.177 202.767 121.296C202.582 120.311 201.742 119.564 201.057 118.915C200.448 118.338 199.813 116.107 199.548 116.903C199.314 117.603 199.466 115.423 199.548 114.689C199.688 113.425 202.478 112.617 203.438 112.007C205.304 110.819 206.919 110.708 208.87 108.854C211.068 106.767 212.444 104.383 214.236 102.013C214.502 101.661 214.825 105.961 214.974 106.641C215.558 109.311 218.799 107.62 220.507 107.177C225.941 105.769 230.01 110.888 234.96 110.799C238.837 110.73 242.29 105.255 244.686 102.751C247.996 99.2896 250.842 102.995 254.008 105.803C258.454 109.745 259.427 108.054 262.928 103.589C263.854 102.409 268.583 96.4225 270.574 98.4584C272.203 100.123 272.694 102.515 274.129 104.226C276.066 106.536 282.55 102.117 284.123 101.275C286.747 99.8716 299.321 93.5798 292.842 88.8675C291.662 88.0093 293.721 88.7857 294.284 89.1022C295.932 90.0296 295.544 92.7102 296.933 94.0989C297.404 94.5704 297.46 91.922 297.939 91.4161C299.733 89.5224 301.307 91.5705 302.869 92.2209C306.887 93.8951 309.795 86.2185 313.566 87.0566C315.37 87.4575 315.137 91.1478 317.255 91.1478C319.735 91.1478 321.329 87.2745 323.895 88.1297" stroke="#E7DEC6" stroke-width="2" stroke-linecap="round"/>
<path d="M276.845 104.129C278.932 106.737 277.598 113.174 277.598 116.509C277.598 118.595 278.011 118.433 280.066 118.433C284.709 118.433 289.037 119.437 293.491 120.692C301.228 122.871 296.612 129.194 296.419 134.41C296.272 138.387 301.752 140.265 305.244 140.265C309.715 140.265 311.548 139.651 313.734 143.695C314.997 146.032 318.32 151.878 320.928 152.352C323.851 152.884 327.038 154.571 329.544 156.075" stroke="#E7DEC6" stroke-width="2" stroke-linecap="round"/>
<path d="M73.3894 83.3007C73.0207 79.7978 65.4762 75.3251 70.103 73.6426C71.9913 72.956 73.5031 72.1057 75.5021 71.7982C77.8907 71.4307 80.2725 62.9845 81.8402 65.896C82.9109 67.8845 83.9787 70.5785 85.7973 72.0665C87.5301 73.4842 91.1555 70.3286 89.8886 68.8807C88.1936 66.9435 87.3641 65.2569 86.401 62.5426C85.525 60.0738 85.0901 59.8987 86.9711 58.8537C89.2915 57.5646 87.8363 56.095 86.8034 53.857C85.242 50.4741 83.6428 49.4975 87.7424 49.4975C91.8797 49.4975 95.6532 49.91 99.7479 50.4365C102.891 50.8406 105.231 39.5964 102.095 38.0286C100.801 37.3814 99.5312 37.4249 98.1382 37.4249C95.4734 37.4249 96.3273 32.1049 96.3273 30.3155C96.3273 29.5176 96.0458 32.3861 96.6626 32.5624C97.4794 32.7957 98.9193 32.6985 99.6473 32.2941C100.433 31.8574 102.903 30.8537 103.638 31.221C104.61 31.7068 105.763 33.7134 106.991 33.2666C108.481 32.7249 109.388 31.0036 109.875 29.6113C110.834 26.8728 109.102 27.2195 106.958 26.5596C105.264 26.0385 106.293 23.472 107.494 22.9379C108.747 22.381 108.624 20.7594 110.244 20.5569C112.748 20.2439 116.336 20.0331 118.695 20.8587C120.74 21.5743 123.801 22.5031 124.698 24.6817C124.776 24.8725 127.01 29.6171 127.112 27.7669C127.273 24.8729 131.686 23.0965 134.356 23.5415C137.744 24.1061 137.35 34.697 140.258 27.834C141.902 23.9541 138.632 22.8208 137.508 19.7856C137.062 18.5814 137.603 17.5399 136.435 16.5662C133.837 14.4012 129.803 13.7551 126.643 12.8103C121.674 11.3249 126.956 9.42428 128.923 7.1094C130.864 4.82646 131.941 2.96626 131.941 0" stroke="#E7DEC6" stroke-width="2" stroke-linecap="round"/>
<path d="M77.0115 439.441C74.5535 439.532 65.1699 440.872 64.3353 443.063C63.6134 444.958 64.3353 448.479 64.3353 450.541C64.3353 453.902 61.5613 458.44 58.9026 460.434C56.9565 461.894 61.7607 461.533 62.1555 462.278C63.6177 465.04 62.5244 470.082 62.5244 473.244C62.5244 475.215 62.8355 474.641 64.4023 475.424C68.642 477.544 65.6682 482.878 66.8839 486.39C67.7315 488.839 84.8781 481.221 87.2061 480.689C91.1194 479.795 89.2719 494.751 93.3094 494.975C97.2854 495.196 98.8169 501.188 100.184 504.163C101.348 506.697 102.686 508.959 102.23 511.809C102.143 512.349 101.245 514.993 102.33 514.425C104.403 513.34 106.719 512.426 108.702 511.206C112.084 509.124 112.051 504.157 116.247 502.621C119.174 501.549 122.691 503.174 125.503 502.151C126.532 501.777 128.032 492.611 128.32 491.487C128.868 489.343 129.63 487.081 130.734 485.149C132.208 482.57 138.618 481.857 141.063 481.091C144.182 480.115 152.728 478.899 151.761 473.58C151.452 471.884 146.7 468.415 144.953 468.415C142.444 468.415 140.676 468.331 138.313 467.543C134.371 466.229 132.636 465.481 129.997 461.641C126.908 457.149 125.905 454.187 125.905 449.032C125.905 444.794 124.607 439.566 125.704 435.484C126.359 433.049 127.543 430.568 127.917 428.073C128.262 425.776 119.594 429.06 118.662 429.381C116.321 430.186 113.662 431.135 111.787 428.844C110.322 427.053 110.915 424.974 107.796 427.033C106.141 428.126 104.523 429.577 103.37 431.192C102.049 433.041 98.7944 432.135 96.8306 431.896C95.7468 431.764 94.7262 431.656 93.6448 431.594C92.1014 431.506 90.9369 430.051 89.4864 430.051C88.4109 430.051 88.5029 435.203 88.4469 435.819C88.0884 439.763 84.2574 437.705 81.5051 437.63C80.365 437.599 79.0075 437.459 77.8834 437.664C76.0785 437.992 76.31 439.49 75.2006 440.045" stroke="#E7DEC6" stroke-width="2" stroke-linecap="round"/>
<path d="M84 360C84.6902 360.675 91.9133 383.898 91.3435 384.617C90.7191 385.404 88.5599 386.088 88.9985 387.4C89.545 389.035 90.8597 390.661 91.7932 392.105C93.0676 394.077 94.8064 396.237 93.817 398.732C92.385 402.343 87.4729 403.136 89.0627 407.414C89.4188 408.372 89.4161 410.979 90.7331 411.125C91.6391 411.225 93.6838 410.631 94.3309 411.489C96.5314 414.408 92.6206 416.631 92.3714 418.945C92.1404 421.089 92.0881 422.982 91.215 425.008C90.5663 426.514 90.3253 427.143 92.0823 427.692C94.3097 428.389 94.0739 429.934 94.0739 432" stroke="#E7DEC6" stroke-width="2" stroke-linecap="round"/>
<path d="M101.76 513.687C100.259 514.513 93.1568 519.775 95.3888 522.138C96.5366 523.354 99.4134 525.54 97.2332 527.235C96.1308 528.093 93.6289 527.571 92.3706 527.571C89.5288 527.571 87.1309 528.242 84.3893 528.912C81.9395 529.511 79.5137 533.85 80.0633 536.323C80.5223 538.389 81.3918 541.378 80.1975 543.399C78.5174 546.242 75.5267 547.948 73.7923 550.71C73.035 551.916 74.5748 551.939 75.0666 552.923C75.6791 554.148 74.9441 556.238 74.5971 557.383C73.7804 560.079 74.778 558.536 75.1672 559.898C75.5032 561.075 73.9092 560.949 73.524 561.642C72.8766 562.808 72.6732 564.895 72.1826 566.203" stroke="#E7DEC6" stroke-width="2" stroke-linecap="round"/>
<path d="M186.5 369.226C190.889 369.713 186.5 383.941 186.5 389.726C186.5 391.507 186.5 408.726 190 417.726C192.493 426.109 219.852 460.573 220.407 460.434C223.819 459.581 228.052 457.071 231.54 456.946C232.341 456.918 232.389 460.954 233.351 461.641C235.961 463.506 238.864 466.507 239.455 469.757C239.904 472.228 241.618 474.512 241.802 477C241.979 479.388 244.624 478.099 246.061 477.436C249.826 475.699 248.245 481.182 248.476 483.607C248.625 485.18 250.545 484.45 251.46 485.317C252.811 486.596 253.88 488.502 254.948 490.012C257.134 493.102 258.144 487.477 259.039 486.256C260.876 483.751 261.214 485.097 262.862 487.363C264.591 489.739 264.437 489.338 267.222 489.676C275.521 490.686 269.396 496.881 267.155 501.011C265.31 504.408 258.44 505.973 261.789 510.066C265.554 514.668 264.672 520.564 259.643 523.949C256.857 525.824 254.909 530.636 258.838 532.232C262.952 533.903 266.239 535.466 263.667 539.71C263.396 540.157 261.926 541.554 262.862 542.058C265.137 543.283 268.344 543.982 270.877 544.372C274.386 544.912 284.669 545.448 284.995 539.912C285.203 536.384 284.66 546.975 284.66 550.509C284.66 552.743 286.988 554.362 288.55 555.64C290.4 557.153 288.309 557.356 288.08 558.959C287.318 564.293 305.507 559.379 300.958 566.203" stroke="#E7DEC6" stroke-width="2" stroke-linecap="round"/>
<path d="M105.476 186.726C106.725 183.851 108.047 180.941 109.227 178.082C109.792 176.712 106.782 177.275 105.61 176.702C103.149 175.498 99.7832 174.159 97.775 171.954C94.7172 168.595 110.523 163.821 112.173 163.107C114.706 162.011 110.798 155.315 108.758 155.315C105.564 155.315 105.229 162.812 102.597 162.458C101.387 162.295 99.8663 157.718 99.3153 156.614C97.4891 152.953 97.2381 152.255 99.0809 148.132C99.9173 146.261 99.8823 144.358 101.894 144.358C105.021 144.358 103.353 137.783 101.994 136.079C101.289 135.195 99.8498 135.137 98.9805 134.537C98.0534 133.898 97.1834 132.263 96.1343 131.981C94.7498 131.608 95.0603 137.441 93.8908 136.242C91.9007 134.201 92.301 130.888 92.2166 128.125C92.1647 126.426 90.0887 117.173 93.6899 119.157C94.5738 119.644 97.306 120.067 96.1008 117.98C94.4242 115.077 90.6617 109.773 87.9975 107.997C86.4516 106.966 75.5348 105.905 76.8137 103.289C77.5326 101.819 79.5594 100.362 79.5594 98.6223C79.5594 96.0436 78.354 94.0934 78.354 91.4799C78.354 87.4959 76.7066 87.1115 73.3313 86.0825C70.3258 85.1663 67.297 85.0812 64.2904 84.4187C63.7283 84.2948 63.354 82.5965 63.018 82.1055C60.4111 78.2956 60.475 81.806 58.7655 83.6476C56.1603 86.4542 51.7898 81.1356 49.5907 79.9141C47.1775 78.5736 45.1882 87.076 43.8648 88.6798C43.38 89.2674 40.7452 89.0199 40.1146 88.8015C38.1669 88.1271 34.8456 83.6827 33.2167 82.0243C31.6381 80.4172 29.3119 82.5849 27.6918 83.3635C27.4632 83.4734 21.9455 85.9915 21.9659 85.5956C22.0804 83.3758 29.4902 82.304 28.7633 79.9547C27.3956 75.5344 17.887 75.5657 14.9006 75.8153C11.8903 76.0669 10.539 80.8069 7.56752 80.8069C5.04501 80.8069 2.52251 80.8069 0 80.8069" stroke="#E7DEC6" stroke-width="2" stroke-linecap="round"/>
<path d="M63 306.726C63 311.963 58 304.488 58 309.726C58 311.419 56.2388 313.043 54.7858 313.609C54.0847 317.121 50.6221 319.588 48.4416 321.854C45.1993 325.223 40.9183 323.323 36.8459 322.597C35.4844 322.355 36.762 322.539 37.0584 322.8C37.9008 323.542 38.0122 326.039 38.2423 327.092C38.6486 328.951 40.2909 332.802 37.4227 332.802C35.6729 332.802 26.5275 330.703 25.5235 332.532C24.0914 335.141 25.3368 335.238 21.9416 335.303C20.2153 335.336 19.0909 336.559 18.0561 338.04C17.448 338.91 16.4271 339.136 15.8706 339.932C14.67 341.651 16.0928 344.45 14.4742 346.251C13.2767 347.584 11.4622 346.238 10.1031 346.995C8.71274 347.769 8.07332 349.121 6.39977 349.766C5.19977 350.228 4.21727 351.184 3 351.726" stroke="#E7DEC6" stroke-width="2" stroke-linecap="round"/>
<path d="M241 311.708C241.714 311.708 242.174 311.66 242.707 310.946C243.549 309.818 243.429 312.468 243.732 313.199C244.365 314.726 245.433 314.802 246.565 313.791C248.101 312.42 248.048 311.206 248.879 313.774C249.371 315.296 249.928 312.898 250.612 312.928C251.685 312.974 252.395 314.566 253.293 314.452C255.826 314.129 257.072 308.309 258.756 306.186C259.537 305.203 260.034 308.409 260.135 308.913C260.786 312.186 261.461 315.087 261.728 318.483C261.907 320.762 262.4 323.161 264.245 322.836C264.681 322.759 266.306 322.172 266.66 322.599C266.936 322.932 266.904 324.852 266.939 325.36C267.13 328.177 274.11 320.44 274.969 324.208C275.275 325.547 275.333 326.876 276.639 325.969C278.631 324.585 279.07 322.843 279.75 320.177C280.2 318.409 280.988 316.929 281.293 315.096C281.487 313.924 282.091 315.548 282.241 315.892C282.884 317.362 283.801 318.564 284.442 320.024C284.857 320.969 286.138 320.549 286.87 320.549C287.533 320.549 287.798 322.924 287.894 323.632C288.534 328.343 296.5 321.441 296.772 328.002C296.812 328.968 297.455 329.156 297.455 330.204C297.455 332.622 297.462 333.704 299.201 335.014C300.467 335.968 301.844 336.322 303.045 337.487C304.936 339.321 307.325 342.168 309.824 341.992C310.86 341.919 311.114 338.025 311.114 336.996C311.114 336.538 310.89 333.138 311.291 333.066C313.535 332.665 315.989 333.049 318.247 333.049C319.101 333.049 320.068 332.775 320.725 333.591C321.37 334.39 322.265 334.506 322.951 335.183C323.152 335.381 324.495 334.269 325 334.269" stroke="#E7DEC6" stroke-width="2" stroke-linecap="round"/>
<path d="M197.348 173.189C198.803 173.813 197.789 179.401 197.192 180.745C196.006 183.415 190.43 180.196 189.014 179.576C182.176 176.585 185.519 185.409 184.652 189.313C183.499 194.502 174.46 168.281 173 174.849C172.753 175.959 170.185 181.028 169.417 181.626C166.269 184.074 163.708 162.838 163 161.726C159.439 156.131 157.655 184.599 157.655 187.468C157.655 195.127 147.497 180.691 146.984 180.535C143.935 179.607 139.627 188.364 139.021 184.118C138.672 181.681 139.539 178.845 138.865 176.485C137.965 173.336 125.728 178.125 125 174.849C124.24 171.43 126.966 165.892 122.118 165.892C119.084 165.892 118.5 189.226 107 191.226C106.864 188.775 101.069 181.393 99.2062 179.421C96.4306 176.482 96.6399 179.962 95 181.601C92.849 183.752 88.1266 171.787 85.184 171.787C78.1308 171.787 83.3591 178.489 79.2643 181.601C74.6819 185.084 64.1533 186.426 64.1533 193.908C64.1533 197.914 72.2335 197.284 75.0581 199.205C81.7573 203.76 69.8987 204.985 69.7615 208.552C69.6841 210.563 69.462 212.749 70.4625 214.55C72.4534 218.133 66.4134 217.208 65.088 218.912C61.7979 223.142 79.2643 220.114 79.2643 230.226C69.1383 240.614 54.7427 230.201 47.7071 233.449C42.8058 235.711 42.783 238.22 44.2917 243.501C44.908 245.658 55.8451 247.908 58.1564 248.486C65.4823 250.317 60.0585 255.643 61.1163 260.403C62.529 266.76 64.8679 268.115 56.2091 268.115C53.5384 268.115 40.7021 268.138 40.0855 270.296C39.035 273.973 45.4991 280.227 42.5002 283.226C40.8626 284.863 40.0551 294.163 47.5 299.226C53.6702 303.421 66.8825 300.452 63.3744 308.565C60.5434 315.112 65.0125 323.681 62.1281 330.219C59.3502 336.516 74.1756 330.813 65.2438 335.827C57.0898 340.405 50.0778 341.38 59.6356 350.938C63.4844 354.787 69.0915 350.712 73.3445 352.963C73.8555 353.234 83.922 358.833 85.184 360.726" stroke="#C0B493" stroke-width="2" stroke-linecap="round"/>
<path d="M197.751 174.362C197.874 175.47 199.869 177.154 200.71 177.906C204.028 180.875 209.08 182.219 207.524 187.577C206.832 189.962 205.184 190.368 205.184 193.255C205.184 196.902 211.732 195.118 213.856 196.18C214.547 196.525 213.856 199.581 213.856 200.482C213.856 204.84 212.533 207.097 217.298 207.675C217.743 207.729 223.306 207.586 222.185 208.707C221.638 209.254 220.622 208.707 220.189 209.189C219.514 209.938 220.037 213.2 220.085 214.076C220.38 219.378 222.166 220.927 227.691 218.963C231.781 217.508 234.809 215.755 238.325 213.147C241.51 210.783 244.699 210.064 248.546 210.29C251.285 210.451 239.61 215.819 246.963 216.519C249.065 216.719 251.024 216.904 251.024 219.238C251.024 223.149 253.348 222.679 256.633 222.679C260.943 222.679 264.086 220.767 267.13 217.724C269.426 215.428 269.607 216.707 269.607 219.857C269.607 223.602 270.29 226.903 267.095 229.459C264.437 231.586 259.923 230.732 256.736 230.732C252.244 230.732 240.221 229.379 238.772 234.449C238.113 236.758 240.837 238.044 241.078 240.334C241.32 242.629 240.323 243.761 239.736 245.874C238.961 248.663 236.821 257.213 239.323 259.537C242.066 262.084 249.427 259.318 250.886 261.705C251.564 262.814 247.307 265.44 247.307 267.039C247.307 272.809 247.307 278.579 247.307 284.349C247.307 288.184 249.626 291.434 246.688 294.536C245.436 295.857 246.699 297.633 244.21 297.633C240.943 297.633 239.918 299.016 239.874 302.451C239.841 304.966 239.741 307.545 239.908 310.057C239.946 310.627 241.233 313.905 240.975 314.221C239.026 316.603 234.94 318.483 232.578 320.415C228.347 323.877 236.117 326.437 237.258 329.226C238.389 331.989 233.614 332.915 232.062 333.252C227.739 334.192 226.351 336.123 222.804 338.999C221.141 340.348 220.744 342.825 220.189 344.781C219.85 345.973 219.957 351.453 218.812 351.801C214.335 353.164 209.791 351.415 205.322 353.247C201.325 354.884 203.691 355.303 204.874 358.065C206.083 360.885 205.804 363.686 205.804 366.703C205.804 368.223 206.543 370.729 204.565 370.729C201.33 370.729 200.489 368.838 197.51 368.32C193.04 367.543 189.023 370.424 184.26 369.215C182.561 368.783 181.798 367.976 179.993 368.526C178.07 369.113 176.45 371.017 174.521 371.314C173.27 371.507 171.7 371.445 170.46 371.28C168.981 371.082 167.511 369.419 166.158 369.49C162.618 369.676 163.061 378.143 163.061 380.709C163.061 383.857 163.797 388.177 161.96 390.896C161.091 392.181 157.009 393.738 156.867 391.171C156.63 386.916 155.184 381.879 150.362 381.879C146.935 381.879 144.469 381.589 141.449 383.393C136.784 386.181 135.614 387.263 131.435 383.084C129.367 381.017 125.822 378.998 125.137 376.029C123.753 370.034 125.137 371.797 125.137 366.049C125.137 364.004 125.341 361.85 125.103 359.82C124.785 357.117 121.191 353.682 118.667 356.206C117.398 357.475 117.87 363.269 115.363 360.955C113.527 359.26 109.934 357.282 108.756 355.139C107.23 352.364 107.215 344.527 103.456 343.611C102.523 343.383 93.2752 340.855 92.9597 341.959C91.5911 346.749 98.2506 356.151 94.4396 359.269C91.9775 361.283 85.5 360.955 85.5 360.955" stroke="#C0B493" stroke-width="2" stroke-linecap="round"/>
</g>
<defs>
<clipPath id="clip0_184_64">
<rect width="320" height="568" fill="white"/>
</clipPath>
</defs>
</svg>
